# xmcd
#
# Track frame offsets:
#	182
#	13457
#	26670
#	44792
#	61430
#	75215
#	89577
#	109865
#	125767
#	142062
#	157325
#	180447
#
# Disc length: 2599 seconds
# Revision: 12
# Processed by: cddbd v1.5.2PL0 Copyright (c) Steve Scherf et al.
# Submitted via: dBpowerAMP V12.0
#
DISCID=af0a250c
DTITLE=Various Artist - Timeless
DYEAR=2001
DGENRE=Country
TTITLE0=Bob Dylan - I Can't Get You off of My Mind
TTITLE1=Sheryl Crow - Long Gone Lonesome Blues
TTITLE2=Keb' Mo' - I'm So Lonesome I Could Cry
TTITLE3=Beck - Your Cheatin' Heart
TTITLE4=Mark Knopfler Band with Emmylou Harris - Lost on the River
TTITLE5=Tom Petty - You're Gonna Change (Or I'm Gonna Leave)
TTITLE6=Keith Richards - You Win Again
TTITLE7=Emmylou Harris with the Mark Knopfler Band - Alone and Forsaken
TTITLE8=Hank Williams III - I'm a Long Gone Daddy
TTITLE9=Ryan Adams - Lovesick Blues
TTITLE10=Lucinda Williams - Cold, Cold Heart
TTITLE11=Johnny Cash - I Dreamed About Mama Last Night
EXTD=
EXTT0=
EXTT1=
EXTT2=
EXTT3=
EXTT4=
EXTT5=
EXTT6=
EXTT7=
EXTT8=
EXTT9=
EXTT10=
EXTT11=
PLAYORDER=
